<?xml version="1.0" standalone="no"?>
<!DOCTYPE svg PUBLIC "-//W3C//DTD SVG 20010904//EN"
 "http://www.w3.org/TR/2001/REC-SVG-20010904/DTD/svg10.dtd">
<svg version="1.0" xmlns="http://www.w3.org/2000/svg"
 width="104.000000pt" height="104.000000pt" viewBox="0 0 104.000000 104.000000"
 preserveAspectRatio="xMidYMid meet">
<metadata>
Created by potrace 1.14, written by Peter Selinger 2001-2017
</metadata>
<g transform="translate(0.000000,104.000000) scale(0.100000,-0.100000)"
fill="#000000" stroke="none">
<path d="M546 858 c-11 -15 -16 -45 -16 -88 0 -70 -21 -119 -59 -140 -18 -9
-21 -8 -21 9 0 22 -35 51 -62 51 -14 0 -18 8 -18 34 0 41 -38 77 -70 69 -28
-7 -50 -41 -50 -75 0 -20 -5 -28 -18 -28 -32 0 -62 -29 -62 -60 0 -31 30 -60
62 -60 13 0 18 -8 18 -28 0 -58 62 -96 98 -60 9 9 12 5 12 -20 0 -27 -4 -32
-24 -32 -33 0 -56 -25 -56 -59 0 -32 13 -46 53 -56 22 -6 27 -13 27 -40 0 -38
26 -65 63 -65 31 0 57 33 57 72 0 16 4 28 9 28 5 0 16 3 25 6 13 5 16 -1 16
-28 0 -46 24 -78 60 -78 41 0 60 32 60 103 0 105 44 159 140 173 56 8 70 19
70 55 0 35 -24 59 -59 59 -15 0 -47 10 -71 23 -58 28 -80 71 -80 152 0 73 -18
105 -60 105 -18 0 -34 -8 -44 -22z"/>
</g>
</svg>
